<svg width="38" height="34" viewBox="0 0 38 34" fill="none" xmlns="http://www.w3.org/2000/svg">
<path d="M12.1665 32V8.66667C12.1665 7.11671 12.1665 6.34174 12.3369 5.7059C12.7992 3.98044 14.1469 2.63271 15.8724 2.17037C16.5082 2 17.2832 2 18.8332 2C20.3831 2 21.1581 2 21.7939 2.17037C23.5194 2.63271 24.8671 3.98044 25.3295 5.7059C25.4998 6.34174 25.4998 7.11671 25.4998 8.66667V32M7.49984 32H30.1665C32.0333 32 32.9668 32 33.6798 31.6367C34.307 31.3171 34.8169 30.8072 35.1365 30.18C35.4998 29.4669 35.4998 28.5335 35.4998 26.6667V14C35.4998 12.1332 35.4998 11.1997 35.1365 10.4867C34.8169 9.85949 34.307 9.34956 33.6798 9.02998C32.9668 8.66667 32.0333 8.66667 30.1665 8.66667H7.49984C5.633 8.66667 4.69957 8.66667 3.98654 9.02998C3.35933 9.34956 2.84939 9.85949 2.52982 10.4867C2.1665 11.1997 2.1665 12.1332 2.1665 14V26.6667C2.1665 28.5335 2.1665 29.4669 2.52982 30.18C2.84939 30.8072 3.35933 31.3171 3.98654 31.6367C4.69957 32 5.633 32 7.49984 32Z" stroke="#3B82F6" stroke-width="3.33333" stroke-linecap="round" stroke-linejoin="round"/>
</svg>
