<svg width="21" height="22" viewBox="0 0 21 22" fill="none" xmlns="http://www.w3.org/2000/svg">
<path d="M7.68745 20C8.39258 20.6224 9.31882 21 10.3333 21C11.3477 21 12.274 20.6224 12.9791 20M16.3333 7C16.3333 5.4087 15.7011 3.88258 14.5759 2.75736C13.4507 1.63214 11.9246 1 10.3333 1C8.74197 1 7.21585 1.63214 6.09063 2.75736C4.96541 3.88258 4.33327 5.4087 4.33327 7C4.33327 10.0902 3.55374 12.206 2.68294 13.6054C1.9484 14.7859 1.58113 15.3761 1.5946 15.5408C1.60951 15.7231 1.64813 15.7926 1.79505 15.9016C1.92773 16 2.52586 16 3.72212 16H16.9444C18.1407 16 18.7388 16 18.8715 15.9016C19.0184 15.7926 19.057 15.7231 19.0719 15.5408C19.0854 15.3761 18.7181 14.7859 17.9836 13.6054C17.1128 12.206 16.3333 10.0902 16.3333 7Z" stroke="#334155" stroke-width="2" stroke-linecap="round" stroke-linejoin="round"/>
</svg>
