<svg width="23" height="22" viewBox="0 0 23 22" fill="none" xmlns="http://www.w3.org/2000/svg">
<path d="M4.66689 13H17.8026C18.8154 13 19.3218 13 19.725 12.8112C20.0801 12.6448 20.3785 12.3777 20.5831 12.0432C20.8153 11.6633 20.8712 11.16 20.983 10.1534L21.568 4.88835C21.6022 4.58088 21.6193 4.42715 21.5698 4.30816C21.5264 4.20366 21.4488 4.11697 21.3498 4.06228C21.237 4 21.0823 4 20.7729 4H4.16689M1.66675 1H2.91519C3.17981 1 3.31212 1 3.41564 1.05032C3.50677 1.09463 3.58228 1.16557 3.63219 1.25376C3.68887 1.35394 3.69712 1.48599 3.71363 1.7501L4.61987 16.2499C4.63637 16.514 4.64463 16.6461 4.70131 16.7462C4.75121 16.8344 4.82673 16.9054 4.91786 16.9497C5.02137 17 5.15369 17 5.41831 17H18.6667M7.16675 20.5H7.17675M16.1667 20.5H16.1767M7.66675 20.5C7.66675 20.7761 7.44289 21 7.16675 21C6.89061 21 6.66675 20.7761 6.66675 20.5C6.66675 20.2239 6.89061 20 7.16675 20C7.44289 20 7.66675 20.2239 7.66675 20.5ZM16.6667 20.5C16.6667 20.7761 16.4429 21 16.1667 21C15.8906 21 15.6667 20.7761 15.6667 20.5C15.6667 20.2239 15.8906 20 16.1667 20C16.4429 20 16.6667 20.2239 16.6667 20.5Z" stroke="#334155" stroke-width="2" stroke-linecap="round" stroke-linejoin="round"/>
</svg>
