<svg width="35" height="34" viewBox="0 0 35 34" fill="none" xmlns="http://www.w3.org/2000/svg">
<path d="M17.4991 17.0002H17.5158M23.3917 22.8928C15.5812 30.7033 6.61138 34.3967 3.35701 31.1424C0.102644 27.888 3.79611 18.9182 11.6066 11.1077C19.4171 3.2972 28.3869 -0.396267 31.6413 2.8581C34.8957 6.11247 31.2022 15.0823 23.3917 22.8928ZM23.3916 11.1074C31.2021 18.9179 34.8956 27.8877 31.6412 31.1421C28.3868 34.3964 19.417 30.703 11.6065 22.8925C3.79604 15.082 0.102577 6.11217 3.35695 2.8578C6.61132 -0.396568 15.5812 3.29689 23.3916 11.1074ZM18.3325 17.0002C18.3325 17.4605 17.9594 17.8336 17.4991 17.8336C17.0389 17.8336 16.6658 17.4605 16.6658 17.0002C16.6658 16.54 17.0389 16.1669 17.4991 16.1669C17.9594 16.1669 18.3325 16.54 18.3325 17.0002Z" stroke="#3B82F6" stroke-width="3.33333" stroke-linecap="round" stroke-linejoin="round"/>
</svg>
