<svg width="16" height="16" viewBox="0 0 16 16" fill="none" xmlns="http://www.w3.org/2000/svg">
<path d="M8.3298 13.2025L12.1098 15.6025C12.5973 15.91 13.1973 15.4525 13.0548 14.89L11.9598 10.585C11.9302 10.4657 11.9349 10.3404 11.9734 10.2237C12.0119 10.1069 12.0826 10.0034 12.1773 9.92502L15.5673 7.09752C16.0098 6.73002 15.7848 5.98752 15.2073 5.95002L10.7823 5.66502C10.6616 5.65799 10.5455 5.61595 10.4483 5.54403C10.351 5.4721 10.2769 5.37341 10.2348 5.26002L8.5848 1.10502C8.54113 0.984946 8.46156 0.881221 8.3569 0.807925C8.25225 0.734629 8.12757 0.695313 7.9998 0.695312C7.87203 0.695312 7.74736 0.734629 7.6427 0.807925C7.53804 0.881221 7.45848 0.984946 7.4148 1.10502L5.7648 5.26002C5.72275 5.37341 5.64858 5.4721 5.55134 5.54403C5.45411 5.61595 5.33804 5.65799 5.2173 5.66502L0.792301 5.95002C0.214801 5.98752 -0.0101986 6.73002 0.432301 7.09752L3.8223 9.92502C3.91705 10.0034 3.98774 10.1069 4.02622 10.2237C4.0647 10.3404 4.06941 10.4657 4.0398 10.585L3.0273 14.575C2.8548 15.25 3.5748 15.7975 4.1523 15.43L7.6698 13.2025C7.76844 13.1398 7.88291 13.1065 7.9998 13.1065C8.11669 13.1065 8.23116 13.1398 8.3298 13.2025V13.2025Z" fill="#FEC84B"/>
</svg>
